# xmcd CD database file
#
# Track frame offsets:
#	150
#	16248
#	35571
#	51819
#	66192
#	80115
#	103263
#	128811
#
# Disc length: 2018 seconds
#
# Revision: 0
# Processed by: cddbd v1.5.2PL0 Copyright (c) Steve Scherf et al.
# Submitted via: CDex 1.70beta2
#
DISCID=6b07e008
DTITLE=白いしましまうさぎ - はじめての東方和楽
DYEAR=2008
DGENRE=東方アレンジ
TTITLE0=郷を望む
TTITLE1=舶来の紅いお茶
TTITLE2=風の鳴る道
TTITLE3=永月夜話
TTITLE4=もう箏しか弾けない
TTITLE5=放夜奉玉
TTITLE6=遊楽
TTITLE7=ﾰￗﾤﾤﾤﾷﾤ￞ﾤﾷﾤ￞ﾤﾦﾤﾵﾤﾮ - ￇﾁEￎﾜ￶ﾡﾫￖ￉ﾙ￑ﾤￎﾶￎ
EXTD=YEAR: 2008
EXTT0=
EXTT1=
EXTT2=
EXTT3=
EXTT4=
EXTT5=
EXTT6=
EXTT7=
PLAYORDER=
